# xmcd
#
# Track frame offsets: 
#        188
#        17038
#        33675
#        49350
#        71700
#        88463
#        105675
#        119850
#        135950
#        152613
#        170313
#        184088
#        198888
#        214400
#        230225
#        245050
#
# Disc length: 3628 seconds
#
# Revision: 2
# Processed by: cddbd v1.5.2PL0 Copyright (c) Steve Scherf et al.
# Submitted via: ExactAudioCopy v0.95b4
#
DISCID=f40e2a10
DTITLE=Various Artist - Die deutsche Schlagerparade 1989_04
DYEAR=1989
DGENRE=Schlager
TTITLE0=Flippers - Sommerwind
TTITLE1=Ralf Christian - Spanische Sonne (Komm mit mir in die)
TTITLE2=Ireen Sheer - Liebe macht stark
TTITLE3=Andy Borg - Du wirst wieder tanzen geh'n
TTITLE4=Tanja Jonak - Immer und ewig Du
TTITLE5=Frank Riviera - Hey, der Wind wird sich dreh'n
TTITLE6=Bern Simon - Zeit zum Leben
TTITLE7=Fernando Express - Fly Away Flamingo
TTITLE8=Paldauer - Tanz mit mir Corinna
TTITLE9=Karel Gott - Du bist für mich wie die Sonne am Morgen
TTITLE10=Duo California - ich glaub' an die Liebe
TTITLE11=Rendezvous - E viva Rosita
TTITLE12=Thomas Berger - Den Samba tanzen wir
TTITLE13=Gaby Baginsky - Signore, Signore
TTITLE14=Bert Beel - Pro Favor Seniorita
TTITLE15=Drafi Deutscher - Über Grenzen geh'n
EXTD=CD von I.B.\n
EXTT0=
EXTT1=
EXTT2=
EXTT3=
EXTT4=
EXTT5=
EXTT6=
EXTT7=
EXTT8=
EXTT9=
EXTT10=
EXTT11=
EXTT12=
EXTT13=
EXTT14=
EXTT15=
PLAYORDER=
